# xmcd
#
# Track frame offsets: 
#        150
#        45687
#        70025
#        117275
#        140400
#        190775
#        210150
#        237875
#
# Disc length: 3697 seconds
#
# Revision: 1
# Processed by: cddbd v1.5.2PL0 Copyright (c) Steve Scherf et al.
# Submitted via: ExactAudioCopy v0.95a5
#
DISCID=670e6f08
DTITLE=阎学敏 - 炎黄第一鼓
DYEAR=2004
DGENRE=Instrumental
TTITLE0=“鼓诗”－为一群中国鼓而作
TTITLE1=鸭子拌嘴（西安鼓乐）
TTITLE2=百花园（苏南十番鼓）
TTITLE3=锦鸡出山（土家族打溜子）
TTITLE4=夜深沉（京剧曲牌）
TTITLE5=醒狮（广东音乐）
TTITLE6=冲天炮（四川民间锣鼓）
TTITLE7=渔舟凯歌（舟山锣鼓）
EXTD=
EXTT0=
EXTT1=
EXTT2=
EXTT3=
EXTT4=
EXTT5=
EXTT6=
EXTT7=
PLAYORDER=
